<svg xmlns="http://www.w3.org/2000/svg" xmlns:xlink="http://www.w3.org/1999/xlink" width="500" zoomAndPan="magnify" viewBox="0 0 375 374.999991" height="500" preserveAspectRatio="xMidYMid meet" version="1.0"><defs><filter x="0%" y="0%" width="100%" height="100%" id="daf5f9ecdb"><feColorMatrix values="0 0 0 0 1 0 0 0 0 1 0 0 0 0 1 0 0 0 1 0" color-interpolation-filters="sRGB"/></filter><g/><mask id="e95ae34445"><g filter="url(#daf5f9ecdb)"><rect x="-37.5" width="450" fill="#000000" y="-37.499999" height="449.999989" fill-opacity="0.48"/></g></mask><clipPath id="c69575dbc5"><rect x="0" width="219" y="0" height="207"/></clipPath></defs><rect x="-37.5" width="450" fill="#ffffff" y="-37.499999" height="449.999989" fill-opacity="1"/><rect x="-37.5" width="450" fill="#e4dcd1" y="-37.499999" height="449.999989" fill-opacity="1"/><g mask="url(#e95ae34445)"><g transform="matrix(1, 0, 0, 1, 78, 84)"><g clip-path="url(#c69575dbc5)"><g fill="#ffffff" fill-opacity="1"><g transform="translate(1.073876, 155.249984)"><g><path d="M 3 0 L 3 -1.5 L 6 -2.546875 C 9.40625 -3.648438 11.109375 -6.503906 11.109375 -11.109375 L 11.109375 -88 C 11.109375 -90 10.882812 -91.597656 10.4375 -92.796875 C 9.988281 -94.003906 8.8125 -95.007812 6.90625 -95.8125 L 3 -97.609375 L 3 -99.109375 L 31.984375 -99.109375 L 59.765625 -26.4375 L 85.890625 -99.109375 L 115.484375 -99.109375 L 115.484375 -97.609375 L 113.078125 -96.703125 C 111.171875 -96.003906 109.867188 -95.03125 109.171875 -93.78125 C 108.472656 -92.53125 108.125 -90.90625 108.125 -88.90625 L 108.125 -10.359375 C 108.125 -8.359375 108.375 -6.804688 108.875 -5.703125 C 109.375 -4.597656 110.578125 -3.648438 112.484375 -2.859375 L 115.484375 -1.5 L 115.484375 0 L 78.09375 0 L 78.09375 -1.5 L 81.25 -2.859375 C 83.144531 -3.648438 84.34375 -4.597656 84.84375 -5.703125 C 85.34375 -6.804688 85.59375 -8.359375 85.59375 -10.359375 L 85.59375 -44.15625 L 85.890625 -87.09375 L 54.515625 0 L 47 0 L 14.265625 -86.046875 L 14.71875 -48.65625 L 14.71875 -10.8125 C 14.71875 -8.613281 15.039062 -6.835938 15.6875 -5.484375 C 16.34375 -4.128906 17.617188 -3.148438 19.515625 -2.546875 L 22.828125 -1.5 L 22.828125 0 Z M 3 0 "/></g></g></g><g fill="#ffffff" fill-opacity="1"><g transform="translate(119.853596, 155.249984)"><g><path d="M 5.25 0 L 5.25 -1.5 L 10.21875 -3 C 12.019531 -3.5 13.316406 -4.472656 14.109375 -5.921875 C 14.910156 -7.378906 15.3125 -9.109375 15.3125 -11.109375 L 15.3125 -83.34375 C 14.21875 -85.75 13.34375 -87.550781 12.6875 -88.75 C 12.039062 -89.945312 11.316406 -90.972656 10.515625 -91.828125 C 9.710938 -92.679688 8.609375 -93.757812 7.203125 -95.0625 L 4.65625 -97.609375 L 4.65625 -99.109375 L 31.234375 -99.109375 L 81.09375 -31.078125 L 81.09375 -87.703125 C 81.09375 -89.703125 80.765625 -91.503906 80.109375 -93.109375 C 79.460938 -94.710938 78.140625 -95.765625 76.140625 -96.265625 L 71.1875 -97.609375 L 71.1875 -99.109375 L 92.65625 -99.109375 L 92.65625 -97.609375 L 88.59375 -96.265625 C 86.789062 -95.660156 85.691406 -94.609375 85.296875 -93.109375 C 84.898438 -91.609375 84.703125 -89.851562 84.703125 -87.84375 L 84.703125 0.453125 L 76.28125 0.453125 L 18.921875 -78.390625 L 18.921875 -11.109375 C 18.921875 -9.109375 19.21875 -7.40625 19.8125 -6 C 20.414062 -4.601562 21.671875 -3.601562 23.578125 -3 L 28.078125 -1.5 L 28.078125 0 Z M 5.25 0 "/></g></g></g></g></g></g><g fill="#000000" fill-opacity="1"><g transform="translate(29.634819, 214.806372)"><g><path d="M 81.4375 -44.765625 C 81.351562 -44.546875 81.265625 -44.328125 81.171875 -44.109375 C 80.304688 -41.859375 79.375 -39.644531 78.375 -37.46875 C 73.207031 -26.71875 67.65625 -16.316406 61.71875 -6.265625 C 59.78125 -3.023438 57.800781 0.15625 55.78125 3.28125 C 53.769531 6.414062 51.742188 9.535156 49.703125 12.640625 C 49.222656 13.367188 48.738281 14.097656 48.25 14.828125 C 48.21875 14.890625 48.191406 14.929688 48.171875 14.953125 C 48.054688 15.179688 47.925781 15.367188 47.78125 15.515625 C 47.632812 15.660156 47.4375 15.734375 47.1875 15.734375 C 47.070312 15.734375 46.953125 15.703125 46.828125 15.640625 C 46.703125 15.585938 46.601562 15.519531 46.53125 15.4375 C 46.46875 15.363281 46.425781 15.242188 46.40625 15.078125 C 46.382812 14.910156 46.394531 14.773438 46.4375 14.671875 C 46.769531 13.953125 47.144531 13.273438 47.5625 12.640625 C 48.46875 11.140625 49.390625 9.640625 50.328125 8.140625 C 52.066406 5.359375 53.773438 2.570312 55.453125 -0.21875 C 59.191406 -6.457031 62.757812 -12.820312 66.15625 -19.3125 C 69.5625 -25.8125 72.882812 -32.375 76.125 -39 C 77.425781 -41.5625 78.5 -44.300781 79.34375 -47.21875 C 79.507812 -47.726562 79.640625 -48.253906 79.734375 -48.796875 C 79.828125 -49.335938 79.875 -49.898438 79.875 -50.484375 C 79.789062 -51.734375 79.257812 -52.28125 78.28125 -52.125 C 77.414062 -51.945312 76.597656 -51.671875 75.828125 -51.296875 C 74.015625 -50.421875 72.222656 -49.453125 70.453125 -48.390625 C 60.953125 -42.628906 52.300781 -35.472656 44.5 -26.921875 C 44.382812 -26.785156 44.257812 -26.648438 44.125 -26.515625 C 41.425781 -23.585938 38.75 -20.628906 36.09375 -17.640625 C 33.445312 -14.660156 30.875 -11.59375 28.375 -8.4375 C 27.851562 -7.78125 27.304688 -7.171875 26.734375 -6.609375 C 26.128906 -5.972656 25.40625 -5.722656 24.5625 -5.859375 C 24.207031 -5.910156 23.914062 -6.085938 23.6875 -6.390625 C 23.457031 -6.691406 23.367188 -7.046875 23.421875 -7.453125 C 23.585938 -8.566406 23.832031 -9.644531 24.15625 -10.6875 C 25.15625 -13.976562 26.21875 -17.222656 27.34375 -20.421875 C 27.507812 -20.921875 27.660156 -21.398438 27.796875 -21.859375 C 28.085938 -23.054688 28.507812 -24.160156 29.0625 -25.171875 C 29.0625 -25.203125 29.046875 -25.21875 29.015625 -25.21875 C 28.878906 -25.289062 28.742188 -25.347656 28.609375 -25.390625 C 28.472656 -25.429688 28.335938 -25.382812 28.203125 -25.25 C 27.710938 -24.707031 27.238281 -24.140625 26.78125 -23.546875 C 23.019531 -18.453125 19.296875 -13.3125 15.609375 -8.125 C 11.921875 -2.945312 8.320312 2.320312 4.8125 7.6875 C 4.507812 8.207031 4.175781 8.628906 3.8125 8.953125 C 3.445312 9.273438 2.960938 9.382812 2.359375 9.28125 C 2.085938 9.207031 1.875 9.039062 1.71875 8.78125 C 1.570312 8.519531 1.546875 8.265625 1.640625 8.015625 C 1.953125 7.285156 2.300781 6.59375 2.6875 5.9375 C 3.78125 4.0625 4.859375 2.179688 5.921875 0.296875 C 8.054688 -3.421875 10.175781 -7.160156 12.28125 -10.921875 C 15.550781 -16.691406 18.460938 -22.757812 21.015625 -29.125 C 22.023438 -31.582031 22.84375 -34.15625 23.46875 -36.84375 C 23.8125 -38.28125 23.960938 -39.78125 23.921875 -41.34375 C 23.753906 -43.84375 22.921875 -45.628906 21.421875 -46.703125 C 19.929688 -47.773438 17.96875 -48.285156 15.53125 -48.234375 C 13.09375 -48.179688 10.390625 -47.679688 7.421875 -46.734375 C 4.453125 -45.796875 1.410156 -44.550781 -1.703125 -43 C -4.828125 -41.457031 -7.832031 -39.753906 -10.71875 -37.890625 C -13.613281 -36.023438 -16.191406 -34.128906 -18.453125 -32.203125 C -20.710938 -30.285156 -22.472656 -28.488281 -23.734375 -26.8125 C -25.054688 -24.957031 -26.179688 -22.914062 -27.109375 -20.6875 C -27.578125 -19.625 -27.847656 -18.46875 -27.921875 -17.21875 C -27.953125 -16.96875 -28.078125 -16.78125 -28.296875 -16.65625 C -28.515625 -16.539062 -28.757812 -16.503906 -29.03125 -16.546875 C -29.46875 -16.679688 -29.742188 -17.023438 -29.859375 -17.578125 C -29.929688 -18.285156 -29.875 -18.9375 -29.6875 -19.53125 C -29.28125 -21.03125 -28.738281 -22.445312 -28.0625 -23.78125 C -26.8125 -26.125 -24.910156 -28.515625 -22.359375 -30.953125 C -19.804688 -33.390625 -16.835938 -35.722656 -13.453125 -37.953125 C -10.066406 -40.179688 -6.53125 -42.171875 -2.84375 -43.921875 C 0.84375 -45.671875 4.445312 -47.03125 7.96875 -48 C 11.5 -48.976562 14.675781 -49.414062 17.5 -49.3125 C 20.332031 -49.21875 22.5625 -48.441406 24.1875 -46.984375 C 25.820312 -45.535156 26.617188 -43.242188 26.578125 -40.109375 C 26.484375 -38.097656 26.164062 -36.179688 25.625 -34.359375 C 24.832031 -31.691406 23.921875 -29.109375 22.890625 -26.609375 C 21.859375 -24.117188 20.757812 -21.679688 19.59375 -19.296875 C 19.238281 -18.554688 19.160156 -18.191406 19.359375 -18.203125 C 19.566406 -18.222656 19.875 -18.507812 20.28125 -19.0625 C 21.75 -21.007812 23.222656 -22.9375 24.703125 -24.84375 C 25.703125 -26.113281 26.722656 -27.363281 27.765625 -28.59375 C 27.898438 -28.769531 28.035156 -28.9375 28.171875 -29.09375 C 28.765625 -29.820312 29.476562 -30.3125 30.3125 -30.5625 C 30.945312 -30.695312 31.476562 -30.550781 31.90625 -30.125 C 32.34375 -29.707031 32.492188 -29.078125 32.359375 -28.234375 C 32.335938 -28.148438 32.3125 -28.066406 32.28125 -27.984375 C 32.0625 -26.890625 31.800781 -25.832031 31.5 -24.8125 C 30.707031 -22.300781 29.894531 -19.804688 29.0625 -17.328125 C 28.644531 -16.054688 28.234375 -14.765625 27.828125 -13.453125 C 27.742188 -13.265625 27.625 -12.925781 27.46875 -12.4375 C 27.300781 -12 27.144531 -11.566406 27 -11.140625 C 26.851562 -10.722656 26.734375 -10.40625 26.640625 -10.1875 C 26.753906 -10.269531 27.765625 -11.398438 29.671875 -13.578125 C 32.253906 -16.546875 35.3125 -20.019531 38.84375 -24 C 42.382812 -27.988281 45.164062 -31.035156 47.1875 -33.140625 C 50.90625 -36.890625 54.828125 -40.300781 58.953125 -43.375 C 63.078125 -46.445312 67.351562 -49.226562 71.78125 -51.71875 C 72.875 -52.28125 73.992188 -52.789062 75.140625 -53.25 C 75.390625 -53.332031 75.632812 -53.429688 75.875 -53.546875 C 76.957031 -53.984375 78.113281 -54.144531 79.34375 -54.03125 C 81.6875 -53.8125 82.757812 -52.328125 82.5625 -49.578125 C 82.425781 -47.867188 82.050781 -46.265625 81.4375 -44.765625 Z M 28.921875 -25.328125 C 28.984375 -25.273438 29.03125 -25.238281 29.0625 -25.21875 C 29.0625 -25.21875 29.0625 -25.203125 29.0625 -25.171875 C 29.082031 -25.171875 29.09375 -25.1875 29.09375 -25.21875 C 29.039062 -25.238281 28.984375 -25.273438 28.921875 -25.328125 Z M 28.921875 -25.328125 "/></g></g></g><g fill="#000000" fill-opacity="1"><g transform="translate(105.253058, 214.806372)"><g><path d="M 13.453125 -9.453125 C 13.742188 -9.285156 13.769531 -8.878906 13.53125 -8.234375 C 13.164062 -7.765625 12.78125 -7.328125 12.375 -6.921875 C 11.96875 -6.515625 11.523438 -6.148438 11.046875 -5.828125 C 11.003906 -5.828125 10.984375 -5.816406 10.984375 -5.796875 C 10.660156 -5.566406 10.320312 -5.375 9.96875 -5.21875 C 7.007812 -4.15625 5.5 -4.78125 5.4375 -7.09375 C 4.238281 -6.050781 3.4375 -5.410156 3.03125 -5.171875 C 2.050781 -4.597656 0.988281 -4.335938 -0.15625 -4.390625 C -0.988281 -4.441406 -1.554688 -4.695312 -1.859375 -5.15625 C -2.160156 -5.625 -2.132812 -6.253906 -1.78125 -7.046875 C -1.238281 -8.296875 -0.46875 -9.410156 0.53125 -10.390625 C 1.707031 -11.484375 3.015625 -12.351562 4.453125 -13 C 5.222656 -13.382812 6.023438 -13.535156 6.859375 -13.453125 C 7.703125 -13.398438 8.210938 -12.925781 8.390625 -12.03125 C 8.460938 -11.75 8.394531 -11.503906 8.1875 -11.296875 C 7.914062 -11.046875 7.597656 -10.992188 7.234375 -11.140625 C 7.210938 -11.140625 7.175781 -11.144531 7.125 -11.15625 C 7.082031 -11.164062 7.050781 -11.179688 7.03125 -11.203125 C 6.675781 -11.703125 6.316406 -11.910156 5.953125 -11.828125 C 5.585938 -11.742188 5.195312 -11.582031 4.78125 -11.34375 C 2.882812 -10.226562 1.46875 -8.675781 0.53125 -6.6875 C 0.488281 -6.59375 0.457031 -6.492188 0.4375 -6.390625 C 0.425781 -6.285156 0.457031 -6.203125 0.53125 -6.140625 C 0.757812 -6.066406 1.007812 -6.082031 1.28125 -6.1875 C 1.550781 -6.289062 1.820312 -6.441406 2.09375 -6.640625 C 2.363281 -6.847656 2.59375 -7.019531 2.78125 -7.15625 C 2.8125 -7.195312 2.828125 -7.21875 2.828125 -7.21875 C 3.722656 -7.96875 4.601562 -8.738281 5.46875 -9.53125 C 5.851562 -9.945312 6.332031 -10.175781 6.90625 -10.21875 C 7.71875 -10.21875 8.054688 -9.851562 7.921875 -9.125 C 7.847656 -8.851562 7.769531 -8.582031 7.6875 -8.3125 C 7.363281 -7.132812 7.347656 -6.441406 7.640625 -6.234375 C 7.941406 -6.035156 8.394531 -6.035156 9 -6.234375 C 9.613281 -6.441406 10.226562 -6.832031 10.84375 -7.40625 C 11.457031 -7.988281 11.972656 -8.515625 12.390625 -8.984375 C 12.816406 -9.460938 13.171875 -9.617188 13.453125 -9.453125 Z M 13.453125 -9.453125 "/></g></g></g><g fill="#000000" fill-opacity="1"><g transform="translate(123.252291, 214.806372)"><g><path d="M 14.703125 -9.265625 C 14.898438 -9.015625 14.648438 -8.5625 13.953125 -7.90625 C 13.265625 -7.25 12.53125 -6.695312 11.75 -6.25 C 10.96875 -5.800781 10.0625 -5.359375 9.03125 -4.921875 C 8.351562 -4.617188 7.628906 -4.515625 6.859375 -4.609375 C 6.097656 -4.710938 5.71875 -5.175781 5.71875 -6 C 5.71875 -6.832031 5.910156 -7.660156 6.296875 -8.484375 C 6.671875 -9.316406 6.75 -9.742188 6.53125 -9.765625 C 6.320312 -9.796875 5.878906 -9.597656 5.203125 -9.171875 C 3.429688 -8.003906 1.785156 -6.671875 0.265625 -5.171875 C -0.148438 -4.679688 -0.671875 -4.410156 -1.296875 -4.359375 C -1.617188 -4.359375 -1.867188 -4.457031 -2.046875 -4.65625 C -2.222656 -4.863281 -2.242188 -5.085938 -2.109375 -5.328125 C -1.023438 -7.335938 0.0703125 -9.328125 1.1875 -11.296875 C 1.4375 -11.703125 1.804688 -11.957031 2.296875 -12.0625 C 2.503906 -12.09375 2.695312 -12.023438 2.875 -11.859375 C 3.0625 -11.691406 3.15625 -11.503906 3.15625 -11.296875 C 3.132812 -11.097656 3.050781 -10.863281 2.90625 -10.59375 C 2.851562 -10.4375 2.796875 -10.28125 2.734375 -10.125 C 2.679688 -9.976562 2.660156 -9.851562 2.671875 -9.75 C 2.691406 -9.65625 2.769531 -9.628906 2.90625 -9.671875 C 3.09375 -9.765625 3.28125 -9.867188 3.46875 -9.984375 C 3.9375 -10.253906 4.390625 -10.515625 4.828125 -10.765625 C 5.210938 -10.984375 5.613281 -11.175781 6.03125 -11.34375 C 6.445312 -11.519531 6.882812 -11.640625 7.34375 -11.703125 C 8.09375 -11.753906 8.617188 -11.585938 8.921875 -11.203125 C 9.234375 -10.816406 9.269531 -10.285156 9.03125 -9.609375 C 8.789062 -8.992188 8.53125 -8.382812 8.25 -7.78125 C 7.914062 -7.207031 7.859375 -6.769531 8.078125 -6.46875 C 8.304688 -6.175781 9.34375 -6.519531 11.1875 -7.5 L 12.578125 -8.3125 C 13.890625 -9.15625 14.597656 -9.472656 14.703125 -9.265625 Z M 14.703125 -9.265625 "/></g></g></g><g fill="#000000" fill-opacity="1"><g transform="translate(142.550083, 214.806372)"><g><path d="M 0.46875 -3.28125 C -0.707031 -3.28125 -1.296875 -3.894531 -1.296875 -5.125 C -1.296875 -6.613281 -0.328125 -9.253906 1.609375 -13.046875 C 1.679688 -13.203125 1.816406 -13.28125 2.015625 -13.28125 C 2.796875 -13.28125 3.1875 -12.972656 3.1875 -12.359375 C 3.1875 -12.140625 3.117188 -11.867188 2.984375 -11.546875 C 2.929688 -11.453125 2.285156 -9.816406 1.046875 -6.640625 C 0.847656 -6.117188 0.75 -5.738281 0.75 -5.5 C 0.75 -5.21875 0.867188 -5.078125 1.109375 -5.078125 C 2.015625 -5.078125 4.382812 -7.320312 8.21875 -11.8125 C 8.71875 -12.425781 9.207031 -12.734375 9.6875 -12.734375 C 10.394531 -12.734375 10.75 -12.472656 10.75 -11.953125 C 10.75 -11.753906 10.53125 -11.003906 10.09375 -9.703125 C 9.5 -7.929688 9.203125 -6.910156 9.203125 -6.640625 C 9.203125 -6.234375 9.335938 -6.03125 9.609375 -6.03125 C 10.285156 -6.03125 12.269531 -7.242188 15.5625 -9.671875 C 15.75 -9.828125 15.910156 -9.90625 16.046875 -9.90625 C 16.359375 -9.90625 16.515625 -9.644531 16.515625 -9.125 C 16.515625 -8.988281 16.472656 -8.878906 16.390625 -8.796875 C 14.640625 -7.296875 13.15625 -6.15625 11.9375 -5.375 C 10.820312 -4.664062 9.832031 -4.3125 8.96875 -4.3125 L 8.703125 -4.3125 C 7.429688 -4.582031 6.796875 -5.578125 6.796875 -7.296875 C 5.429688 -6.097656 4.300781 -5.128906 3.40625 -4.390625 C 2.507812 -3.648438 1.53125 -3.28125 0.46875 -3.28125 Z M 0.46875 -3.28125 "/></g></g></g><g fill="#000000" fill-opacity="1"><g transform="translate(163.498904, 214.806372)"><g><path d="M 10.578125 -7.125 C 9.859375 -6.414062 9.019531 -5.8125 8.0625 -5.3125 C 7.113281 -4.8125 6.316406 -4.484375 5.671875 -4.328125 C 5.035156 -4.171875 4.375 -4.082031 3.6875 -4.0625 C 2.601562 -4.007812 1.601562 -4.160156 0.6875 -4.515625 C -0.8125 -5.117188 -1.332031 -6.273438 -0.875 -7.984375 C -0.4375 -9.453125 0.441406 -10.597656 1.765625 -11.421875 C 3.085938 -12.253906 4.453125 -12.660156 5.859375 -12.640625 C 5.859375 -12.640625 5.875 -12.640625 5.90625 -12.640625 C 6.257812 -12.660156 6.597656 -12.632812 6.921875 -12.5625 C 7.460938 -12.363281 7.804688 -12.039062 7.953125 -11.59375 C 8.109375 -11.144531 8.007812 -10.648438 7.65625 -10.109375 C 6.863281 -8.910156 5.789062 -8.242188 4.4375 -8.109375 C 3.53125 -8.023438 2.65625 -8.066406 1.8125 -8.234375 C 1.65625 -8.265625 1.515625 -8.222656 1.390625 -8.109375 C 1.265625 -7.992188 1.191406 -7.859375 1.171875 -7.703125 C 0.921875 -6.640625 1.25 -5.957031 2.15625 -5.65625 C 3.269531 -5.269531 4.425781 -5.269531 5.625 -5.65625 C 7.007812 -6.09375 8.328125 -6.910156 9.578125 -8.109375 C 10.828125 -9.304688 11.546875 -9.863281 11.734375 -9.78125 C 11.929688 -9.707031 11.988281 -9.476562 11.90625 -9.09375 C 11.738281 -8.488281 11.296875 -7.832031 10.578125 -7.125 Z M 2.671875 -10.109375 C 2.597656 -10.023438 2.546875 -9.929688 2.515625 -9.828125 C 2.484375 -9.722656 2.523438 -9.625 2.640625 -9.53125 C 3.066406 -9.289062 3.535156 -9.203125 4.046875 -9.265625 C 4.554688 -9.335938 4.984375 -9.53125 5.328125 -9.84375 C 5.679688 -10.15625 5.835938 -10.539062 5.796875 -11 C 5.753906 -11.164062 5.664062 -11.269531 5.53125 -11.3125 C 5.394531 -11.351562 5.257812 -11.363281 5.125 -11.34375 C 4.207031 -11.175781 3.390625 -10.765625 2.671875 -10.109375 Z M 2.671875 -10.109375 "/></g></g></g><g fill="#000000" fill-opacity="1"><g transform="translate(179.995515, 214.806372)"><g><path d="M 8.984375 -8.84375 C 9.390625 -9.257812 9.726562 -9.488281 10 -9.53125 C 10.269531 -9.582031 10.445312 -9.539062 10.53125 -9.40625 C 10.613281 -9.269531 10.5625 -9.082031 10.375 -8.84375 C 9.28125 -7.539062 8.054688 -6.410156 6.703125 -5.453125 C 5.359375 -4.503906 3.972656 -3.953125 2.546875 -3.796875 C 1.117188 -3.648438 0.257812 -4.429688 -0.03125 -6.140625 C -0.257812 -7.835938 0.757812 -11.289062 3.03125 -16.5 C 5.3125 -21.707031 7.113281 -25.972656 8.4375 -29.296875 C 8.550781 -29.597656 8.71875 -29.859375 8.9375 -30.078125 C 9.238281 -30.367188 9.59375 -30.4375 10 -30.28125 C 10.132812 -30.21875 10.269531 -30.117188 10.40625 -29.984375 C 10.539062 -29.847656 10.585938 -29.609375 10.546875 -29.265625 C 4.691406 -15.378906 1.851562 -7.832031 2.03125 -6.625 C 2.21875 -5.414062 3 -5.113281 4.375 -5.71875 C 5.757812 -6.332031 6.828125 -6.957031 7.578125 -7.59375 C 8.328125 -8.226562 8.796875 -8.644531 8.984375 -8.84375 Z M 8.984375 -8.84375 "/></g></g></g><g fill="#000000" fill-opacity="1"><g transform="translate(194.952404, 214.806372)"><g><path d="M 8.984375 -8.84375 C 9.390625 -9.257812 9.726562 -9.488281 10 -9.53125 C 10.269531 -9.582031 10.445312 -9.539062 10.53125 -9.40625 C 10.613281 -9.269531 10.5625 -9.082031 10.375 -8.84375 C 9.28125 -7.539062 8.054688 -6.410156 6.703125 -5.453125 C 5.359375 -4.503906 3.972656 -3.953125 2.546875 -3.796875 C 1.117188 -3.648438 0.257812 -4.429688 -0.03125 -6.140625 C -0.257812 -7.835938 0.757812 -11.289062 3.03125 -16.5 C 5.3125 -21.707031 7.113281 -25.972656 8.4375 -29.296875 C 8.550781 -29.597656 8.71875 -29.859375 8.9375 -30.078125 C 9.238281 -30.367188 9.59375 -30.4375 10 -30.28125 C 10.132812 -30.21875 10.269531 -30.117188 10.40625 -29.984375 C 10.539062 -29.847656 10.585938 -29.609375 10.546875 -29.265625 C 4.691406 -15.378906 1.851562 -7.832031 2.03125 -6.625 C 2.21875 -5.414062 3 -5.113281 4.375 -5.71875 C 5.757812 -6.332031 6.828125 -6.957031 7.578125 -7.59375 C 8.328125 -8.226562 8.796875 -8.644531 8.984375 -8.84375 Z M 8.984375 -8.84375 "/></g></g></g><g fill="#000000" fill-opacity="1"><g transform="translate(209.909294, 214.806372)"><g><path d="M 13.453125 -9.453125 C 13.742188 -9.285156 13.769531 -8.878906 13.53125 -8.234375 C 13.164062 -7.765625 12.78125 -7.328125 12.375 -6.921875 C 11.96875 -6.515625 11.523438 -6.148438 11.046875 -5.828125 C 11.003906 -5.828125 10.984375 -5.816406 10.984375 -5.796875 C 10.660156 -5.566406 10.320312 -5.375 9.96875 -5.21875 C 7.007812 -4.15625 5.5 -4.78125 5.4375 -7.09375 C 4.238281 -6.050781 3.4375 -5.410156 3.03125 -5.171875 C 2.050781 -4.597656 0.988281 -4.335938 -0.15625 -4.390625 C -0.988281 -4.441406 -1.554688 -4.695312 -1.859375 -5.15625 C -2.160156 -5.625 -2.132812 -6.253906 -1.78125 -7.046875 C -1.238281 -8.296875 -0.46875 -9.410156 0.53125 -10.390625 C 1.707031 -11.484375 3.015625 -12.351562 4.453125 -13 C 5.222656 -13.382812 6.023438 -13.535156 6.859375 -13.453125 C 7.703125 -13.398438 8.210938 -12.925781 8.390625 -12.03125 C 8.460938 -11.75 8.394531 -11.503906 8.1875 -11.296875 C 7.914062 -11.046875 7.597656 -10.992188 7.234375 -11.140625 C 7.210938 -11.140625 7.175781 -11.144531 7.125 -11.15625 C 7.082031 -11.164062 7.050781 -11.179688 7.03125 -11.203125 C 6.675781 -11.703125 6.316406 -11.910156 5.953125 -11.828125 C 5.585938 -11.742188 5.195312 -11.582031 4.78125 -11.34375 C 2.882812 -10.226562 1.46875 -8.675781 0.53125 -6.6875 C 0.488281 -6.59375 0.457031 -6.492188 0.4375 -6.390625 C 0.425781 -6.285156 0.457031 -6.203125 0.53125 -6.140625 C 0.757812 -6.066406 1.007812 -6.082031 1.28125 -6.1875 C 1.550781 -6.289062 1.820312 -6.441406 2.09375 -6.640625 C 2.363281 -6.847656 2.59375 -7.019531 2.78125 -7.15625 C 2.8125 -7.195312 2.828125 -7.21875 2.828125 -7.21875 C 3.722656 -7.96875 4.601562 -8.738281 5.46875 -9.53125 C 5.851562 -9.945312 6.332031 -10.175781 6.90625 -10.21875 C 7.71875 -10.21875 8.054688 -9.851562 7.921875 -9.125 C 7.847656 -8.851562 7.769531 -8.582031 7.6875 -8.3125 C 7.363281 -7.132812 7.347656 -6.441406 7.640625 -6.234375 C 7.941406 -6.035156 8.394531 -6.035156 9 -6.234375 C 9.613281 -6.441406 10.226562 -6.832031 10.84375 -7.40625 C 11.457031 -7.988281 11.972656 -8.515625 12.390625 -8.984375 C 12.816406 -9.460938 13.171875 -9.617188 13.453125 -9.453125 Z M 13.453125 -9.453125 "/></g></g></g><g fill="#000000" fill-opacity="1"><g transform="translate(227.908526, 214.806372)"><g/></g></g><g fill="#000000" fill-opacity="1"><g transform="translate(247.632989, 214.806372)"><g><path d="M 103.578125 -48.5625 C 103.253906 -48.488281 102.960938 -48.492188 102.703125 -48.578125 C 102.441406 -48.671875 102.203125 -48.785156 101.984375 -48.921875 C 101.867188 -48.972656 101.773438 -49.03125 101.703125 -49.09375 C 98.546875 -50.800781 95.195312 -52.082031 91.65625 -52.9375 C 82.457031 -55.132812 73.082031 -54.21875 63.53125 -50.1875 C 60.039062 -48.71875 56.695312 -46.945312 53.5 -44.875 C 50.300781 -42.8125 47.179688 -40.554688 44.140625 -38.109375 C 39.242188 -34.140625 34.734375 -29.789062 30.609375 -25.0625 C 26.484375 -20.34375 22.679688 -15.304688 19.203125 -9.953125 C 17.941406 -8.046875 16.726562 -6.113281 15.5625 -4.15625 C 15.539062 -4.09375 15.507812 -4.035156 15.46875 -3.984375 C 14.582031 -2.597656 13.851562 -1.128906 13.28125 0.421875 C 13.007812 1.148438 12.671875 1.84375 12.265625 2.5 C 11.765625 3.363281 11.082031 3.691406 10.21875 3.484375 C 9.726562 3.378906 9.523438 3.066406 9.609375 2.546875 C 9.660156 2.160156 9.78125 1.796875 9.96875 1.453125 C 10.894531 -0.378906 11.710938 -2.234375 12.421875 -4.109375 C 13.128906 -5.984375 13.796875 -7.875 14.421875 -9.78125 C 14.578125 -10.269531 14.742188 -10.742188 14.921875 -11.203125 C 18.640625 -22.117188 22.085938 -33.101562 25.265625 -44.15625 C 25.328125 -44.394531 25.375 -44.640625 25.40625 -44.890625 C 25.40625 -44.992188 25.414062 -45.113281 25.4375 -45.25 C 25.144531 -45.226562 24.914062 -45.132812 24.75 -44.96875 C 24.59375 -44.800781 24.457031 -44.613281 24.34375 -44.40625 C 24.320312 -44.3125 24.28125 -44.226562 24.21875 -44.15625 C 24.03125 -43.882812 23.851562 -43.59375 23.6875 -43.28125 C 21.882812 -40.46875 20.085938 -37.628906 18.296875 -34.765625 C 15.503906 -30.191406 12.703125 -25.617188 9.890625 -21.046875 C 5.828125 -14.441406 1.742188 -7.816406 -2.359375 -1.171875 C -3.265625 0.304688 -4.21875 1.738281 -5.21875 3.125 C -5.457031 3.476562 -5.6875 3.816406 -5.90625 4.140625 C -6.28125 4.765625 -6.8125 5.144531 -7.5 5.28125 C -7.695312 5.3125 -7.875 5.304688 -8.03125 5.265625 C -8.195312 5.222656 -8.300781 5.117188 -8.34375 4.953125 C -8.40625 4.835938 -8.410156 4.707031 -8.359375 4.5625 C -8.304688 4.414062 -8.234375 4.285156 -8.140625 4.171875 C 1.648438 -11.859375 11.46875 -27.867188 21.3125 -43.859375 C 22.21875 -45.285156 23.171875 -46.675781 24.171875 -48.03125 C 24.398438 -48.332031 24.609375 -48.628906 24.796875 -48.921875 C 25.359375 -49.765625 26.101562 -50.3125 27.03125 -50.5625 C 27.601562 -50.675781 28.050781 -50.59375 28.375 -50.3125 C 28.707031 -50.039062 28.859375 -49.601562 28.828125 -49 C 28.671875 -47.226562 28.320312 -45.476562 27.78125 -43.75 C 25.082031 -34.4375 22.191406 -25.1875 19.109375 -16 C 19.085938 -15.882812 19.050781 -15.785156 19 -15.703125 C 18.882812 -15.429688 18.804688 -15.15625 18.765625 -14.875 C 18.722656 -14.601562 18.78125 -14.304688 18.9375 -13.984375 C 19.164062 -14.285156 19.390625 -14.570312 19.609375 -14.84375 C 20.066406 -15.414062 20.5 -15.984375 20.90625 -16.546875 C 25.757812 -23.410156 31.285156 -29.632812 37.484375 -35.21875 C 41.046875 -38.414062 44.738281 -41.367188 48.5625 -44.078125 C 52.394531 -46.796875 56.421875 -49.117188 60.640625 -51.046875 C 69.347656 -54.941406 78.09375 -56.390625 86.875 -55.390625 C 92.425781 -54.703125 97.597656 -53.09375 102.390625 -50.5625 C 102.492188 -50.507812 102.613281 -50.453125 102.75 -50.390625 C 103 -50.285156 103.234375 -50.160156 103.453125 -50.015625 C 103.671875 -49.878906 103.847656 -49.675781 103.984375 -49.40625 C 104.003906 -49.363281 104.015625 -49.296875 104.015625 -49.203125 C 104.015625 -49.109375 104.003906 -49.015625 103.984375 -48.921875 C 103.929688 -48.835938 103.867188 -48.757812 103.796875 -48.6875 C 103.734375 -48.625 103.660156 -48.582031 103.578125 -48.5625 Z M 103.578125 -48.5625 "/></g></g></g><g fill="#000000" fill-opacity="1"><g transform="translate(280.231757, 214.806372)"><g><path d="M 2.953125 -4.390625 L 2.890625 -4.390625 C 1.097656 -4.421875 -0.078125 -4.820312 -0.640625 -5.59375 C -1.210938 -6.363281 -1.191406 -7.394531 -0.578125 -8.6875 C -0.0546875 -9.664062 0.597656 -10.519531 1.390625 -11.25 C 1.660156 -11.488281 1.9375 -11.679688 2.21875 -11.828125 C 2.507812 -11.984375 2.832031 -12.0625 3.1875 -12.0625 C 3.394531 -12.09375 3.640625 -12.054688 3.921875 -11.953125 C 4.003906 -11.921875 4.085938 -11.890625 4.171875 -11.859375 C 4.378906 -11.890625 4.582031 -11.957031 4.78125 -12.0625 C 4.832031 -12.09375 4.898438 -12.125 4.984375 -12.15625 C 5.398438 -12.3125 5.835938 -12.378906 6.296875 -12.359375 C 6.472656 -12.359375 6.660156 -12.359375 6.859375 -12.359375 C 7.585938 -12.242188 8.140625 -11.9375 8.515625 -11.4375 C 8.890625 -10.9375 9.019531 -10.328125 8.90625 -9.609375 C 8.84375 -9.179688 8.707031 -8.773438 8.5 -8.390625 C 7.070312 -5.835938 5.257812 -4.503906 3.0625 -4.390625 Z M 5.875 -11.046875 C 4.90625 -11.078125 4.039062 -10.789062 3.28125 -10.1875 C 2.519531 -9.59375 1.953125 -8.90625 1.578125 -8.125 C 1.203125 -7.34375 1.097656 -6.703125 1.265625 -6.203125 C 1.429688 -5.703125 1.953125 -5.566406 2.828125 -5.796875 C 3.796875 -6.085938 4.65625 -6.640625 5.40625 -7.453125 C 6.15625 -8.273438 6.613281 -9.050781 6.78125 -9.78125 C 6.945312 -10.519531 6.644531 -10.941406 5.875 -11.046875 Z M 5.875 -11.046875 "/></g></g></g><g fill="#000000" fill-opacity="1"><g transform="translate(295.782263, 214.806372)"><g><path d="M 0.46875 -3.28125 C -0.707031 -3.28125 -1.296875 -3.894531 -1.296875 -5.125 C -1.296875 -6.613281 -0.328125 -9.253906 1.609375 -13.046875 C 1.679688 -13.203125 1.816406 -13.28125 2.015625 -13.28125 C 2.796875 -13.28125 3.1875 -12.972656 3.1875 -12.359375 C 3.1875 -12.140625 3.117188 -11.867188 2.984375 -11.546875 C 2.929688 -11.453125 2.285156 -9.816406 1.046875 -6.640625 C 0.847656 -6.117188 0.75 -5.738281 0.75 -5.5 C 0.75 -5.21875 0.867188 -5.078125 1.109375 -5.078125 C 2.015625 -5.078125 4.382812 -7.320312 8.21875 -11.8125 C 8.71875 -12.425781 9.207031 -12.734375 9.6875 -12.734375 C 10.394531 -12.734375 10.75 -12.472656 10.75 -11.953125 C 10.75 -11.753906 10.53125 -11.003906 10.09375 -9.703125 C 9.5 -7.929688 9.203125 -6.910156 9.203125 -6.640625 C 9.203125 -6.234375 9.335938 -6.03125 9.609375 -6.03125 C 10.285156 -6.03125 12.269531 -7.242188 15.5625 -9.671875 C 15.75 -9.828125 15.910156 -9.90625 16.046875 -9.90625 C 16.359375 -9.90625 16.515625 -9.644531 16.515625 -9.125 C 16.515625 -8.988281 16.472656 -8.878906 16.390625 -8.796875 C 14.640625 -7.296875 13.15625 -6.15625 11.9375 -5.375 C 10.820312 -4.664062 9.832031 -4.3125 8.96875 -4.3125 L 8.703125 -4.3125 C 7.429688 -4.582031 6.796875 -5.578125 6.796875 -7.296875 C 5.429688 -6.097656 4.300781 -5.128906 3.40625 -4.390625 C 2.507812 -3.648438 1.53125 -3.28125 0.46875 -3.28125 Z M 0.46875 -3.28125 "/></g></g></g><g fill="#000000" fill-opacity="1"><g transform="translate(316.731084, 214.806372)"><g><path d="M 14.375 -9.46875 C 14.476562 -9.332031 14.503906 -9.191406 14.453125 -9.046875 C 14.398438 -8.910156 14.304688 -8.789062 14.171875 -8.6875 C 13.316406 -7.914062 12.363281 -7.300781 11.3125 -6.84375 C 9.507812 -6 7.617188 -5.476562 5.640625 -5.28125 C 4.078125 -5.125 2.59375 -5.363281 1.1875 -6 C 0.664062 -6.226562 0.28125 -6.101562 0.03125 -5.625 C -0.3125 -4.945312 -0.675781 -4.265625 -1.0625 -3.578125 C -1.25 -3.191406 -1.453125 -2.796875 -1.671875 -2.390625 C -1.691406 -2.335938 -1.71875 -2.285156 -1.75 -2.234375 C -1.832031 -2.085938 -1.910156 -1.953125 -1.984375 -1.828125 C -2.066406 -1.710938 -2.207031 -1.628906 -2.40625 -1.578125 C -2.507812 -1.554688 -2.613281 -1.546875 -2.71875 -1.546875 C -2.832031 -1.546875 -2.9375 -1.566406 -3.03125 -1.609375 C -3.101562 -1.671875 -3.164062 -1.753906 -3.21875 -1.859375 C -3.269531 -1.960938 -3.296875 -2.070312 -3.296875 -2.1875 C -3.210938 -2.550781 -3.09375 -2.90625 -2.9375 -3.25 C -2.582031 -4.039062 -2.238281 -4.816406 -1.90625 -5.578125 C -1.070312 -7.535156 -0.1875 -9.46875 0.75 -11.375 C 3.300781 -16.632812 5.734375 -21.941406 8.046875 -27.296875 C 8.234375 -27.816406 8.488281 -28.28125 8.8125 -28.6875 C 9.0625 -28.976562 9.398438 -29.054688 9.828125 -28.921875 C 10.273438 -28.742188 10.414062 -28.429688 10.25 -27.984375 C 9.945312 -27.066406 9.625 -26.144531 9.28125 -25.21875 C 7.5625 -20.976562 5.679688 -16.816406 3.640625 -12.734375 C 3.203125 -11.847656 3.046875 -11.289062 3.171875 -11.0625 C 3.296875 -10.832031 3.585938 -10.8125 4.046875 -11 C 4.503906 -11.195312 5.035156 -11.457031 5.640625 -11.78125 C 6.078125 -12.03125 6.507812 -12.25 6.9375 -12.4375 C 7.019531 -12.5 7.101562 -12.539062 7.1875 -12.5625 C 7.695312 -12.851562 8.257812 -13.015625 8.875 -13.046875 C 9.101562 -13.046875 9.273438 -12.941406 9.390625 -12.734375 C 9.453125 -12.597656 9.453125 -12.476562 9.390625 -12.375 C 9.335938 -12.28125 9.269531 -12.207031 9.1875 -12.15625 C 8.257812 -11.613281 7.316406 -11.09375 6.359375 -10.59375 C 5.898438 -10.382812 5.425781 -10.15625 4.9375 -9.90625 C 4.457031 -9.6875 3.976562 -9.453125 3.5 -9.203125 C 3.1875 -9.015625 2.890625 -8.796875 2.609375 -8.546875 C 1.984375 -7.898438 2.054688 -7.359375 2.828125 -6.921875 C 3.453125 -6.648438 4.082031 -6.503906 4.71875 -6.484375 C 5.351562 -6.472656 5.988281 -6.550781 6.625 -6.71875 C 8.582031 -7.144531 10.421875 -7.851562 12.140625 -8.84375 C 12.273438 -8.925781 12.410156 -9 12.546875 -9.0625 C 12.867188 -9.269531 13.207031 -9.453125 13.5625 -9.609375 C 13.695312 -9.671875 13.84375 -9.695312 14 -9.6875 C 14.164062 -9.675781 14.289062 -9.601562 14.375 -9.46875 Z M 14.375 -9.46875 "/></g></g></g><g fill="#000000" fill-opacity="1"><g transform="translate(335.490902, 214.806372)"><g><path d="M 2.953125 -4.390625 L 2.890625 -4.390625 C 1.097656 -4.421875 -0.078125 -4.820312 -0.640625 -5.59375 C -1.210938 -6.363281 -1.191406 -7.394531 -0.578125 -8.6875 C -0.0546875 -9.664062 0.597656 -10.519531 1.390625 -11.25 C 1.660156 -11.488281 1.9375 -11.679688 2.21875 -11.828125 C 2.507812 -11.984375 2.832031 -12.0625 3.1875 -12.0625 C 3.394531 -12.09375 3.640625 -12.054688 3.921875 -11.953125 C 4.003906 -11.921875 4.085938 -11.890625 4.171875 -11.859375 C 4.378906 -11.890625 4.582031 -11.957031 4.78125 -12.0625 C 4.832031 -12.09375 4.898438 -12.125 4.984375 -12.15625 C 5.398438 -12.3125 5.835938 -12.378906 6.296875 -12.359375 C 6.472656 -12.359375 6.660156 -12.359375 6.859375 -12.359375 C 7.585938 -12.242188 8.140625 -11.9375 8.515625 -11.4375 C 8.890625 -10.9375 9.019531 -10.328125 8.90625 -9.609375 C 8.84375 -9.179688 8.707031 -8.773438 8.5 -8.390625 C 7.070312 -5.835938 5.257812 -4.503906 3.0625 -4.390625 Z M 5.875 -11.046875 C 4.90625 -11.078125 4.039062 -10.789062 3.28125 -10.1875 C 2.519531 -9.59375 1.953125 -8.90625 1.578125 -8.125 C 1.203125 -7.34375 1.097656 -6.703125 1.265625 -6.203125 C 1.429688 -5.703125 1.953125 -5.566406 2.828125 -5.796875 C 3.796875 -6.085938 4.65625 -6.640625 5.40625 -7.453125 C 6.15625 -8.273438 6.613281 -9.050781 6.78125 -9.78125 C 6.945312 -10.519531 6.644531 -10.941406 5.875 -11.046875 Z M 5.875 -11.046875 "/></g></g></g></svg>